<svg width="32" height="32" viewBox="0 0 32 32" fill="none" xmlns="http://www.w3.org/2000/svg">
<path d="M26.2186 3.93855C25.9836 3.86971 25.7367 3.81707 25.4857 3.78467C24.5736 3.65915 23.7251 3.87781 22.8807 4.09242C22.5899 4.16936 22.3071 4.13696 21.9964 3.99524C21.5822 3.80492 21.1838 3.67129 20.8054 3.60651C19.4233 3.3676 17.3002 3.894 15.7507 4.27464C15.46 4.34752 15.1931 4.41231 14.9501 4.469C12.2973 5.08044 9.30188 6.6961 7.5174 8.46968C6.49371 9.4901 5.7608 10.4295 5.13941 11.5147L5 11.8954L5.27484 12.0654C5.55765 12.2436 5.68113 12.11 6.1392 11.6119C6.9 10.7818 8.92746 8.58306 10.0029 7.97162C13.8189 5.81741 16.0853 5.49752 17.583 5.27886L17.6866 5.26266C18.527 5.14118 19.5029 5.0278 20.439 5.18572C20.7656 5.24241 21.0882 5.34364 21.3711 5.48537C21.9207 5.75667 22.5103 5.82146 23.2233 5.68378C23.7411 5.58255 24.2589 5.50561 24.8126 5.42868C24.7369 5.51371 24.6612 5.5947 24.5815 5.67164C24.0438 6.19804 23.8566 6.86617 24.0239 7.66793C24.0677 7.87849 24.1195 8.08905 24.1752 8.29961C24.231 8.51827 24.2868 8.73289 24.3306 8.9556C24.5855 10.2068 24.5457 11.5512 24.2111 13.0656C24.0836 13.6447 23.9124 14.2601 23.7012 14.8878C23.3906 15.811 23.0241 17.046 22.9365 18.3621C22.8966 18.9533 22.5939 19.4837 21.9845 20.0304C21.861 20.1397 21.6738 20.1923 21.4667 20.1721C21.2197 20.1478 20.9887 20.0223 20.8532 19.84C20.5306 19.4108 20.1203 19.1395 19.5945 19.0099C19.2201 18.9168 18.9214 18.7346 18.6744 18.4511C18.6425 18.4147 18.6306 18.3904 18.6266 18.3904C18.6266 18.3864 18.6346 18.3702 18.6465 18.3499C18.9254 17.8883 19.2002 17.4267 19.479 16.9651C19.961 16.1593 19.8335 15.5559 19.0648 15.0052L18.9015 14.8878C18.527 14.6205 18.1367 14.3452 17.7901 14.0496C17.3122 13.6447 17.1727 13.1911 17.356 12.6202C17.4356 12.3772 17.4675 12.1221 17.4914 11.9075C17.5113 11.7415 17.4914 11.5552 17.4316 11.3852C17.3241 11.0653 17.0971 10.8466 16.8142 10.7859C16.5314 10.7251 16.2486 10.8304 16.0256 11.0734C15.9021 11.211 15.7228 11.4257 15.6432 11.6848C15.3245 12.6809 15.0138 13.6851 14.7231 14.6651C14.4761 15.4952 14.4681 16.3698 14.6872 17.5036L14.8266 18.2041C15.0337 19.2327 15.2488 20.2976 15.3405 21.3423C15.4002 21.9862 15.46 22.4964 15.5117 22.9458C15.6631 24.2456 15.7587 25.0312 15.5755 27.2664C15.5476 27.6065 15.2807 28.9307 15.0855 29.8944C14.8306 31.1578 14.8253 31.8286 15.0696 31.9069L15.4241 32L15.5635 31.6599C16.0654 30.441 16.5832 29.1777 16.8103 27.8131C17.121 25.922 17.1727 23.8691 16.9656 21.5326C16.882 20.573 16.7067 19.6173 16.5394 18.6941C16.4677 18.2973 16.396 17.8964 16.3283 17.4996C16.3044 17.3497 16.2725 17.1999 16.2407 17.0541C16.1889 16.799 16.1371 16.5601 16.1251 16.3253C16.0933 15.8232 16.1809 15.3413 16.3243 14.8392C16.7664 15.398 17.344 15.7948 17.9096 16.1795C17.9495 16.2078 17.9893 16.2362 18.0291 16.2605L17.9216 16.4387C17.6945 16.8112 17.4675 17.1756 17.2564 17.5441C16.874 18.2122 16.9417 18.8885 17.4555 19.4959C17.9057 20.0304 18.4872 20.3867 19.24 20.5932C19.3874 20.6337 19.487 20.7025 19.5906 20.8321C19.9968 21.3545 20.6142 21.6987 21.2914 21.7756C21.9168 21.8485 22.5063 21.6865 22.9564 21.318C23.9323 20.5244 24.466 19.5687 24.5457 18.4754C24.6214 17.4631 24.8843 16.4913 25.1312 15.6733C25.41 14.7501 25.7287 13.6568 25.9398 12.5068C26.2505 10.8466 26.139 9.12971 25.6092 7.40472C25.5295 7.14152 25.5773 6.95525 25.7845 6.74064C26.1031 6.41265 26.4258 6.02392 26.7723 5.55421C26.9914 5.25861 27.0551 4.91037 26.9516 4.59453C26.844 4.27464 26.5811 4.03168 26.2266 3.9264L26.2186 3.93855Z" fill="white"/>
<path d="M22.3589 14.7583C22.3589 14.7583 22.3828 14.7542 22.3948 14.7502C22.59 14.7016 22.7214 14.5355 22.7851 14.4384C22.8608 14.3209 22.9405 14.1387 22.8927 13.9484C22.7971 13.5678 22.825 13.1993 22.9843 12.7984C23.0719 12.5716 23.0361 12.3894 22.9843 12.276C22.9086 12.0938 22.7493 11.9521 22.5302 11.863C22.2474 11.7496 21.873 11.7982 21.6619 12.272C21.3831 12.8956 21.3193 13.4665 21.4587 14.0132C21.4587 14.0294 21.4627 14.0456 21.4667 14.0618C21.4826 14.1752 21.5065 14.3695 21.6659 14.5032C21.8332 14.6449 22.0881 14.7987 22.355 14.7583H22.3589Z" fill="white"/>
<path d="M22.2515 1.76812C16.5316 1.10404 10.4572 2.58608 6.20312 6.67584C7.2547 5.52585 8.39788 4.4285 9.71633 3.56195C13.4327 1.06355 17.9218 -0.0621476 22.371 0.00264076C22.8849 0.0107393 23.2712 0.472356 23.2035 0.990663C23.2035 0.998762 23.2035 1.01091 23.2035 1.01901C23.1398 1.48872 22.7216 1.82076 22.2555 1.76812H22.2515Z" fill="white"/>
</svg>
