<svg width="226" height="44" viewBox="0 0 226 44" fill="none" xmlns="http://www.w3.org/2000/svg">
<g clip-path="url(#clip0_2007_208)">
<path d="M48.4705 35.1098V39.6635H47.7397V35.1098H45.8484V34.4307H50.3618V35.1098H48.4705Z" fill="white"/>
<path d="M54.5181 37.6372V39.6691H53.8152V37.6762C53.8152 36.9915 53.4302 36.5962 52.8221 36.5962C52.4372 36.5962 52.041 36.8133 51.7398 37.1975V39.6691H51.0312V34.2025H51.7398V36.4348C52.0634 36.1342 52.4818 35.9561 52.956 35.9561C53.8877 35.9561 54.5125 36.6074 54.5125 37.6317L54.5181 37.6372Z" fill="white"/>
<path d="M59.0875 38.1438H59.0707H56.1529C56.2533 38.7061 56.6606 39.1625 57.3636 39.1625C57.7876 39.1625 58.0944 38.9955 58.245 38.7172H59.0094C58.8029 39.3574 58.1502 39.7637 57.3412 39.7637C56.2143 39.7637 55.45 38.9399 55.45 37.8766C55.45 36.8133 56.2143 35.9839 57.3412 35.9839C58.3566 35.9839 59.093 36.7521 59.0986 37.8376C59.0986 37.9378 59.0986 38.0436 59.0819 38.1438H59.0875ZM56.1585 37.615H58.3901C58.3231 36.997 57.927 36.5907 57.3189 36.5907C56.6662 36.5907 56.2533 37.036 56.1641 37.615H56.1585Z" fill="white"/>
<path d="M66.0611 37.8655C66.0611 38.912 65.2354 39.7526 64.22 39.7526C63.7346 39.7526 63.3274 39.5967 63.0149 39.3462V39.6691H62.3064V34.2025H63.0149V36.3903C63.3218 36.1342 63.7346 35.9839 64.22 35.9839C65.241 35.9839 66.0611 36.8245 66.0611 37.871V37.8655ZM65.3525 37.8655C65.3525 37.1808 64.8225 36.5962 64.1196 36.5962C63.69 36.5962 63.2939 36.7744 63.0149 37.1808V38.5558C63.2939 38.9566 63.6844 39.1403 64.1196 39.1403C64.8225 39.1403 65.3525 38.5502 65.3525 37.8655Z" fill="white"/>
<path d="M67.7571 36.6073C68.0863 36.2232 68.5493 35.9894 69.1128 35.9894V36.6574C68.5326 36.6741 68.0807 36.919 67.7571 37.3644V39.6635H67.0486V36.0673H67.7571V36.5962V36.6073Z" fill="white"/>
<path d="M69.9719 34.7368C69.9719 34.4808 70.1728 34.2915 70.435 34.2915C70.6972 34.2915 70.898 34.4863 70.898 34.7368C70.898 34.9874 70.6916 35.1822 70.435 35.1822C70.1783 35.1822 69.9719 34.9874 69.9719 34.7368ZM70.792 39.669H70.0891V36.0729H70.792V39.669Z" fill="white"/>
<path d="M75.6402 39.6691H74.9317V39.3462C74.6248 39.6078 74.2064 39.7526 73.7266 39.7526C72.7056 39.7526 71.8911 38.912 71.8911 37.8654C71.8911 36.8189 72.7056 35.9783 73.7266 35.9783C74.2064 35.9783 74.6192 36.123 74.9317 36.3847V34.1969H75.6402V39.6635V39.6691ZM74.9317 38.5668V37.1751C74.6527 36.7688 74.2622 36.5962 73.827 36.5962C73.1241 36.5962 72.5996 37.1807 72.5996 37.8654C72.5996 38.5501 73.1241 39.1402 73.827 39.1402C74.2566 39.1402 74.6527 38.9621 74.9317 38.5613V38.5668Z" fill="white"/>
<path d="M80.4158 39.7192C80.4158 40.8214 79.6682 41.5061 78.597 41.5061C77.6263 41.5061 76.8899 40.9272 76.7839 40.0922H77.5036C77.5872 40.5542 77.9945 40.8715 78.597 40.8715C79.2498 40.8715 79.7073 40.4484 79.7073 39.7248V39.1959C79.3837 39.4576 78.9597 39.6134 78.4743 39.6134C77.4534 39.6134 76.6611 38.784 76.6611 37.8042C76.6611 36.7354 77.4534 35.9393 78.4743 35.9393C78.9597 35.9393 79.3837 36.0952 79.7073 36.3624V36.0785H80.4158V39.7248V39.7192ZM79.7073 38.3943V37.1418C79.4227 36.7243 79.0155 36.5517 78.5747 36.5517C77.8718 36.5517 77.3697 37.0917 77.3697 37.7986C77.3697 38.4054 77.8718 39.0011 78.5747 39.0011C79.0155 39.0011 79.4227 38.8174 79.7073 38.3999V38.3943Z" fill="white"/>
<path d="M85.0689 38.1438H85.0522H82.1343C82.2348 38.7061 82.642 39.1625 83.345 39.1625C83.769 39.1625 84.0758 38.9955 84.2265 38.7172H84.9908C84.7844 39.3574 84.1316 39.7637 83.3227 39.7637C82.1957 39.7637 81.4314 38.9399 81.4314 37.8766C81.4314 36.8133 82.1957 35.9839 83.3227 35.9839C84.3381 35.9839 85.0745 36.7521 85.0801 37.8376C85.0801 37.9378 85.0801 38.0436 85.0633 38.1438H85.0689ZM82.1399 37.615H84.3715C84.3046 36.997 83.9085 36.5907 83.3004 36.5907C82.6476 36.5907 82.2348 37.036 82.1455 37.615H82.1399Z" fill="white"/>
<path d="M92.0425 37.8655C92.0425 38.912 91.2168 39.7526 90.2014 39.7526C89.7161 39.7526 89.3088 39.5967 88.9964 39.3462V39.6691H88.2878V34.2025H88.9964V36.3903C89.3032 36.1342 89.7161 35.9839 90.2014 35.9839C91.2168 35.9839 92.0425 36.8245 92.0425 37.871V37.8655ZM91.334 37.8655C91.334 37.1808 90.804 36.5962 90.101 36.5962C89.6714 36.5962 89.2753 36.7744 88.9964 37.1808V38.5558C89.2753 38.9566 89.6659 39.1403 90.101 39.1403C90.804 39.1403 91.334 38.5502 91.334 37.8655Z" fill="white"/>
<path d="M96.5057 38.1438H96.4889H93.5711C93.6715 38.7061 94.0788 39.1625 94.7818 39.1625C95.2058 39.1625 95.5126 38.9955 95.6632 38.7172H96.4276C96.2211 39.3574 95.574 39.7637 94.7594 39.7637C93.6325 39.7637 92.8682 38.9399 92.8682 37.8766C92.8682 36.8133 93.6325 35.9839 94.7594 35.9839C95.7748 35.9839 96.5113 36.7521 96.5168 37.8376C96.5168 37.9378 96.5168 38.0436 96.5001 38.1438H96.5057ZM93.5767 37.615H95.8083C95.7413 36.997 95.3452 36.5907 94.7371 36.5907C94.0844 36.5907 93.6715 37.036 93.5823 37.615H93.5767Z" fill="white"/>
<path d="M100.071 39.6468C99.7081 39.7525 99.5072 39.7859 99.2283 39.7859C98.3859 39.7859 97.9005 39.2626 97.9005 38.333V36.6685H97.0134V36.0784H97.9005V34.7535H98.609V36.0784H99.9591V36.6685H98.609V38.333C98.609 38.8952 98.8657 39.1346 99.3566 39.1346C99.5519 39.1346 99.775 39.0956 99.9591 39.04L100.065 39.6468H100.071Z" fill="white"/>
<path d="M104.752 39.669H104.121L103.29 37.2141L102.459 39.669H101.828L100.478 36.0729H101.243L102.135 38.5501L102.983 36.0729H103.591L104.439 38.5501L105.343 36.0729H106.107L104.757 39.669H104.752Z" fill="white"/>
<path d="M110.208 38.1438H110.191H107.273C107.374 38.7061 107.781 39.1625 108.484 39.1625C108.908 39.1625 109.215 38.9955 109.365 38.7172H110.13C109.923 39.3574 109.276 39.7637 108.462 39.7637C107.335 39.7637 106.57 38.9399 106.57 37.8766C106.57 36.8133 107.335 35.9839 108.462 35.9839C109.477 35.9839 110.213 36.7521 110.219 37.8376C110.219 37.9378 110.219 38.0436 110.202 38.1438H110.208ZM107.279 37.615H109.51C109.443 36.997 109.047 36.5907 108.439 36.5907C107.787 36.5907 107.374 37.036 107.284 37.615H107.279Z" fill="white"/>
<path d="M114.682 38.1438H114.665H111.748C111.848 38.7061 112.255 39.1625 112.958 39.1625C113.382 39.1625 113.689 38.9955 113.84 38.7172H114.604C114.398 39.3574 113.75 39.7637 112.936 39.7637C111.809 39.7637 111.045 38.9399 111.045 37.8766C111.045 36.8133 111.809 35.9839 112.936 35.9839C113.951 35.9839 114.688 36.7521 114.693 37.8376C114.693 37.9378 114.693 38.0436 114.677 38.1438H114.682ZM111.753 37.615H113.985C113.918 36.997 113.522 36.5907 112.914 36.5907C112.261 36.5907 111.848 37.036 111.759 37.615H111.753Z" fill="white"/>
<path d="M119.168 37.6372V39.6691H118.465V37.6762C118.465 36.9915 118.08 36.5962 117.472 36.5962C117.087 36.5962 116.691 36.8133 116.389 37.1975V39.6691H115.681V36.073H116.389V36.4348C116.713 36.1342 117.131 35.9561 117.606 35.9561C118.537 35.9561 119.162 36.6074 119.162 37.6317L119.168 37.6372Z" fill="white"/>
<path d="M122.42 34.7368C122.42 34.4808 122.621 34.2915 122.883 34.2915C123.145 34.2915 123.346 34.4863 123.346 34.7368C123.346 34.9874 123.14 35.1822 122.883 35.1822C122.627 35.1822 122.42 34.9874 122.42 34.7368ZM123.24 39.669H122.537V36.0729H123.24V39.669Z" fill="white"/>
<path d="M128.061 37.6372V39.6691H127.358V37.6762C127.358 36.9915 126.973 36.5962 126.365 36.5962C125.98 36.5962 125.584 36.8133 125.282 37.1975V39.6691H124.574V36.073H125.282V36.4348C125.606 36.1342 126.024 35.9561 126.498 35.9561C127.43 35.9561 128.055 36.6074 128.055 37.6317L128.061 37.6372Z" fill="white"/>
<path d="M130.984 39.669H130.354L128.663 36.0729H129.411L130.666 38.7672L131.916 36.0729H132.674L130.984 39.669Z" fill="white"/>
<path d="M136.675 38.1438H136.658H133.74C133.84 38.7061 134.248 39.1625 134.951 39.1625C135.375 39.1625 135.682 38.9955 135.832 38.7172H136.597C136.39 39.3574 135.743 39.7637 134.928 39.7637C133.801 39.7637 133.037 38.9399 133.037 37.8766C133.037 36.8133 133.801 35.9839 134.928 35.9839C135.944 35.9839 136.68 36.7521 136.686 37.8376C136.686 37.9378 136.686 38.0436 136.669 38.1438H136.675ZM133.746 37.615H135.977C135.91 36.997 135.514 36.5907 134.906 36.5907C134.253 36.5907 133.84 37.036 133.751 37.615H133.746Z" fill="white"/>
<path d="M138.114 38.5056C138.209 38.9677 138.555 39.207 139.146 39.207C139.654 39.207 140.005 39.0066 140.005 38.6838C140.005 38.4277 139.799 38.2663 139.475 38.2162L138.672 38.077C138.103 37.9823 137.601 37.7151 137.601 37.075C137.601 36.3902 138.203 35.9672 139.079 35.9672C139.76 35.9672 140.586 36.2344 140.658 37.1362H140.005C139.95 36.7187 139.587 36.5183 139.085 36.5183C138.583 36.5183 138.298 36.7242 138.298 37.0082C138.298 37.2308 138.46 37.4145 138.906 37.4925L139.598 37.6094C140.128 37.704 140.68 37.9378 140.68 38.6281C140.68 39.3685 140.028 39.7804 139.124 39.7804C138.22 39.7804 137.551 39.4019 137.45 38.4945H138.114V38.5056Z" fill="white"/>
<path d="M144.245 39.6468C143.883 39.7525 143.682 39.7859 143.403 39.7859C142.56 39.7859 142.075 39.2626 142.075 38.333V36.6685H141.188V36.0784H142.075V34.7535H142.784V36.0784H144.134V36.6685H142.784V38.333C142.784 38.8952 143.04 39.1346 143.531 39.1346C143.726 39.1346 143.95 39.0956 144.134 39.04L144.24 39.6468H144.245Z" fill="white"/>
<path d="M148.619 37.8766C148.619 38.9621 147.788 39.786 146.706 39.786C145.623 39.786 144.787 38.9621 144.787 37.8766C144.787 36.7911 145.612 35.9839 146.706 35.9839C147.799 35.9839 148.619 36.7911 148.619 37.8766ZM147.9 37.8766C147.9 37.1863 147.398 36.6296 146.706 36.6296C146.014 36.6296 145.495 37.1863 145.495 37.8766C145.495 38.5669 145.997 39.1403 146.706 39.1403C147.414 39.1403 147.9 38.578 147.9 37.8766Z" fill="white"/>
<path d="M150.315 36.6073C150.644 36.2232 151.107 35.9894 151.671 35.9894V36.6574C151.091 36.6741 150.639 36.919 150.315 37.3644V39.6635H149.607V36.0673H150.315V36.5962V36.6073Z" fill="white"/>
<path d="M152.815 38.5056C152.91 38.9677 153.256 39.207 153.847 39.207C154.355 39.207 154.706 39.0066 154.706 38.6838C154.706 38.4277 154.5 38.2663 154.176 38.2162L153.373 38.077C152.804 37.9823 152.302 37.7151 152.302 37.075C152.302 36.3902 152.904 35.9672 153.78 35.9672C154.461 35.9672 155.286 36.2344 155.359 37.1362H154.706C154.65 36.7187 154.288 36.5183 153.786 36.5183C153.283 36.5183 152.999 36.7242 152.999 37.0082C152.999 37.2308 153.161 37.4145 153.607 37.4925L154.299 37.6094C154.829 37.704 155.381 37.9378 155.381 38.6281C155.381 39.3685 154.728 39.7804 153.825 39.7804C152.921 39.7804 152.251 39.4019 152.151 38.4945H152.815V38.5056Z" fill="white"/>
<path d="M161.897 39.1124C161.451 39.541 160.91 39.7748 160.263 39.7748C159.13 39.7748 158.371 39.1291 158.371 38.1994C158.371 37.537 158.779 37.0304 159.381 36.7688C159.08 36.4125 158.94 36.1063 158.94 35.7389C158.94 34.9095 159.61 34.325 160.508 34.325C161.406 34.325 161.964 34.8816 162.065 35.7723H161.356C161.289 35.2435 160.954 34.954 160.503 34.954C160.023 34.954 159.677 35.2769 159.677 35.7556C159.677 36.2622 160.101 36.624 160.921 37.3589L161.847 38.205L162.617 37.0638H163.359L162.366 38.5669L162.321 38.6337L163.454 39.6746H162.511L161.903 39.118L161.897 39.1124ZM161.429 38.6893L160.302 37.665C160.123 37.5036 159.961 37.3589 159.822 37.2197C159.364 37.4145 159.069 37.7485 159.069 38.1883C159.069 38.7172 159.571 39.1402 160.274 39.1402C160.698 39.1402 161.099 38.9788 161.429 38.6838V38.6893Z" fill="white"/>
<path d="M166.851 38.5056C166.946 38.9677 167.292 39.207 167.884 39.207C168.391 39.207 168.743 39.0066 168.743 38.6838C168.743 38.4277 168.536 38.2663 168.213 38.2162L167.409 38.077C166.84 37.9823 166.338 37.7151 166.338 37.075C166.338 36.3902 166.941 35.9672 167.817 35.9672C168.497 35.9672 169.323 36.2344 169.395 37.1362H168.743C168.687 36.7187 168.324 36.5183 167.822 36.5183C167.32 36.5183 167.036 36.7242 167.036 37.0082C167.036 37.2308 167.197 37.4145 167.644 37.4925L168.335 37.6094C168.865 37.704 169.418 37.9378 169.418 38.6281C169.418 39.3685 168.765 39.7804 167.861 39.7804C166.957 39.7804 166.288 39.4019 166.188 38.4945H166.851V38.5056Z" fill="white"/>
<path d="M172.983 39.6468C172.62 39.7525 172.419 39.7859 172.14 39.7859C171.298 39.7859 170.813 39.2626 170.813 38.333V36.6685H169.926V36.0784H170.813V34.7535H171.521V36.0784H172.871V36.6685H171.521V38.333C171.521 38.8952 171.778 39.1346 172.269 39.1346C172.464 39.1346 172.687 39.0956 172.871 39.04L172.977 39.6468H172.983Z" fill="white"/>
<path d="M177.273 39.6691H176.564V39.3518C176.258 39.6078 175.839 39.7581 175.359 39.7581C174.344 39.7581 173.524 38.9175 173.524 37.871C173.524 36.8244 174.344 35.9783 175.359 35.9783C175.839 35.9783 176.252 36.1341 176.564 36.3846V36.0673H177.273V39.6635V39.6691ZM176.564 38.5668V37.1751C176.286 36.7688 175.895 36.5962 175.46 36.5962C174.757 36.5962 174.232 37.1807 174.232 37.871C174.232 38.5613 174.757 39.1402 175.46 39.1402C175.889 39.1402 176.286 38.9732 176.564 38.5613V38.5668Z" fill="white"/>
<path d="M179.231 36.6073C179.56 36.2232 180.023 35.9894 180.587 35.9894V36.6574C180.007 36.6741 179.555 36.919 179.231 37.3644V39.6635H178.523V36.0673H179.231V36.5962V36.6073Z" fill="white"/>
<path d="M184.013 39.6468C183.65 39.7525 183.449 39.7859 183.17 39.7859C182.328 39.7859 181.842 39.2626 181.842 38.333V36.6685H180.955V36.0784H181.842V34.7535H182.551V36.0784H183.901V36.6685H182.551V38.333C182.551 38.8952 182.808 39.1346 183.298 39.1346C183.494 39.1346 183.717 39.0956 183.901 39.04L184.007 39.6468H184.013Z" fill="white"/>
<path d="M188.342 39.6691H187.633V39.3128C187.31 39.6079 186.903 39.7804 186.417 39.7804C185.491 39.7804 184.861 39.1291 184.861 38.0937V36.0674H185.569V38.0547C185.569 38.745 185.954 39.1347 186.557 39.1347C186.936 39.1347 187.343 38.9287 187.639 38.5446V36.073H188.347V39.6691H188.342Z" fill="white"/>
<path d="M193.352 37.8766C193.352 38.9231 192.526 39.7637 191.511 39.7637C191.025 39.7637 190.618 39.6078 190.306 39.3462V41.5395H189.597V36.0729H190.306V36.3958C190.613 36.1341 191.025 35.9783 191.511 35.9783C192.526 35.9783 193.352 36.8189 193.352 37.871V37.8766ZM192.643 37.8766C192.643 37.1863 192.113 36.6018 191.41 36.6018C190.981 36.6018 190.585 36.7799 190.306 37.1863V38.5613C190.585 38.9676 190.975 39.1458 191.41 39.1458C192.113 39.1458 192.643 38.5557 192.643 37.8766Z" fill="white"/>
<path d="M194.769 38.5056C194.864 38.9677 195.21 39.207 195.801 39.207C196.309 39.207 196.66 39.0066 196.66 38.6838C196.66 38.4277 196.454 38.2663 196.13 38.2162L195.327 38.077C194.758 37.9823 194.256 37.7151 194.256 37.075C194.256 36.3902 194.858 35.9672 195.734 35.9672C196.415 35.9672 197.24 36.2344 197.313 37.1362H196.66C196.604 36.7187 196.242 36.5183 195.74 36.5183C195.238 36.5183 194.953 36.7242 194.953 37.0082C194.953 37.2308 195.115 37.4145 195.561 37.4925L196.253 37.6094C196.783 37.704 197.335 37.9378 197.335 38.6281C197.335 39.3685 196.682 39.7804 195.779 39.7804C194.875 39.7804 194.205 39.4019 194.105 38.4945H194.769V38.5056Z" fill="white"/>
<path d="M51.0868 10.3486C56.3311 10.3486 60.1248 13.878 60.1248 18.7656C60.1248 23.6533 56.3367 27.383 51.0868 27.383H44.9109V10.3486H51.0868ZM51.0868 25.1786C54.875 25.1786 57.6645 22.4731 57.6645 18.7656C57.6645 15.0581 54.875 12.5531 51.0868 12.5531H47.2987V25.1786H51.0868Z" fill="white"/>
<path d="M73.336 27.3831H72.2536V26.3588C71.2494 27.1882 69.8937 27.6837 68.3372 27.6837C65.0232 27.6837 62.3621 24.9559 62.3621 21.549C62.3621 18.1422 65.0232 15.3866 68.3372 15.3866C69.8937 15.3866 71.2494 15.8876 72.2536 16.7115V15.6872H74.5633V26.1584C74.5633 26.8375 74.011 27.3831 73.336 27.3831ZM72.2536 23.8036V19.2722C71.3498 17.9473 70.0667 17.3906 68.6663 17.3906C66.3789 17.3906 64.6718 19.2945 64.6718 21.549C64.6718 23.8036 66.3789 25.6796 68.6663 25.6796C70.0723 25.6796 71.3498 25.1285 72.2536 23.798V23.8036Z" fill="white"/>
<path d="M80.6891 17.413C81.7659 16.1605 83.2722 15.4089 85.1077 15.4089V17.5911C83.473 17.6357 82.1396 18.2424 81.1243 19.3558C80.8397 19.6675 80.6891 20.0795 80.6891 20.5026V27.3831H78.3794V17.1291C78.3794 16.333 79.0266 15.6817 79.8299 15.6817H80.6891V17.4074V17.413Z" fill="white"/>
<path d="M90.1288 24.4493V27.3775H87.8191V10.6882C87.8191 10.0814 88.31 9.59155 88.9182 9.59155H90.1288V21.4154L96.0035 15.6816H98.938L94.0453 20.5637L99.7414 27.3775H99.5071C97.7609 27.3775 96.1095 26.6037 94.9937 25.2621L92.4106 22.167L90.1288 24.4438V24.4493Z" fill="white"/>
<path d="M113.349 20.7697V27.3831H111.067V20.8978C111.067 18.6711 109.812 17.3907 107.831 17.3907C106.576 17.3907 105.298 18.0921 104.316 19.3446V27.3831H102.007V10.6938C102.007 10.087 102.498 9.59717 103.106 9.59717H104.316V16.8618C105.371 15.8877 106.726 15.3087 108.283 15.3087C111.324 15.3087 113.354 17.4352 113.354 20.7697H113.349Z" fill="white"/>
<path d="M128.613 21.5436C128.613 25.0729 125.901 27.7561 122.387 27.7561C118.872 27.7561 116.133 25.0785 116.133 21.5436C116.133 18.0086 118.816 15.3811 122.387 15.3811C125.957 15.3811 128.613 18.0086 128.613 21.5436ZM126.281 21.5436C126.281 19.289 124.652 17.4854 122.392 17.4854C120.133 17.4854 118.448 19.289 118.448 21.5436C118.448 23.7981 120.077 25.6519 122.392 25.6519C124.708 25.6519 126.281 23.8204 126.281 21.5436Z" fill="white"/>
<path d="M133.885 17.413C134.962 16.1605 136.468 15.4089 138.303 15.4089V17.5911C136.418 17.6412 134.939 18.4428 133.885 19.8958V27.3831H131.575V17.1291C131.575 16.333 132.222 15.6817 133.026 15.6817H133.885V17.4074V17.413Z" fill="white"/>
<path d="M140.697 23.5865C141.288 23.5921 141.791 23.9483 142.075 24.4661C142.588 25.4013 143.615 25.88 145.132 25.88C146.789 25.88 147.916 25.2287 147.916 24.1766C147.916 23.3527 147.241 22.8238 146.187 22.6457L143.576 22.1948C141.718 21.8942 140.089 21.0146 140.089 18.9382C140.089 16.7115 142.047 15.3309 144.909 15.3309C147.118 15.3309 149.802 16.2049 150.053 19.1386L149.093 19.1498C148.519 19.1553 147.944 18.8826 147.671 18.376C147.213 17.5354 146.209 17.1346 144.931 17.1346C143.302 17.1346 142.371 17.8082 142.371 18.7378C142.371 19.4671 142.901 20.0627 144.351 20.3132L146.611 20.6862C148.346 20.9868 150.126 21.7662 150.126 23.9929C150.126 26.3977 147.994 27.7505 145.054 27.7505C142.114 27.7505 139.933 26.5258 139.609 23.5698L140.697 23.5809V23.5865Z" fill="white"/>
<path d="M164.363 22.423L164.313 22.4008V22.423H154.823C155.147 24.2489 156.48 25.7297 158.767 25.7297C159.872 25.7297 160.737 25.379 161.278 24.7722C161.585 24.4326 162.042 24.2768 162.5 24.2768H164.112C163.437 26.3532 161.323 27.6837 158.689 27.6837C155.024 27.6837 152.541 25.006 152.541 21.549C152.541 18.0921 155.029 15.3866 158.689 15.3866C162.003 15.3866 164.385 17.8917 164.413 21.421C164.413 21.7439 164.413 22.0946 164.363 22.423ZM154.823 20.6918H162.076C161.847 18.6877 160.569 17.3628 158.589 17.3628C156.452 17.3628 155.124 18.8157 154.823 20.6918Z" fill="white"/>
<path d="M192.615 11.6234C192.615 10.6437 193.659 9.98681 194.769 10.5658C194.864 10.6159 194.947 10.6938 195.003 10.7829C195.673 11.8795 194.925 12.8982 193.937 12.8982C193.19 12.8982 192.615 12.3471 192.615 11.6234ZM195.092 27.3831H192.811V17.1346C192.811 16.333 193.458 15.6872 194.261 15.6872H195.092V27.3831Z" fill="white"/>
<path d="M210.635 27.3831H208.326V26.331C207.321 27.1827 205.966 27.6559 204.409 27.6559C201.095 27.6559 198.434 24.9281 198.434 21.5213C198.434 18.1144 201.095 15.3866 204.409 15.3866C205.966 15.3866 207.321 15.8598 208.326 16.7115V11.039C208.326 10.2429 208.973 9.59717 209.771 9.59717H210.635V27.3831ZM208.326 23.8036V19.2723C207.422 17.9474 206.139 17.3907 204.738 17.3907C202.457 17.3907 200.744 19.2945 200.744 21.5213C200.744 23.748 202.451 25.6797 204.738 25.6797C206.144 25.6797 207.422 25.1007 208.326 23.7981V23.8036Z" fill="white"/>
<path d="M224.661 27.3943H223.69V26.37C222.686 27.1994 221.33 27.6949 219.774 27.6949C216.46 27.6949 213.799 24.9672 213.799 21.5603C213.799 18.1534 216.46 15.3978 219.774 15.3978C221.33 15.3978 222.686 15.8988 223.69 16.7227V15.6984H226V26.0638C226 26.7986 225.403 27.3999 224.661 27.3999V27.3943ZM223.69 23.8148V19.2835C222.787 17.9586 221.503 17.4019 220.103 17.4019C217.821 17.4019 216.109 19.3057 216.109 21.5603C216.109 23.8148 217.816 25.6908 220.103 25.6908C221.509 25.6908 222.787 25.1397 223.69 23.8093V23.8148Z" fill="white"/>
<path d="M183.594 24.3992L189.999 10.3486H187.388L182.729 20.6416C182.467 21.2262 182.467 21.8942 182.729 22.4787L183.594 24.3992Z" fill="white"/>
<path d="M175.387 11.629C175.036 10.8496 174.26 10.3486 173.407 10.3486H172.179L179.493 26.4033C179.795 27.0602 180.453 27.4832 181.178 27.4832H182.539L175.393 11.629H175.387Z" fill="white"/>
<path d="M29.7194 6.41091C29.3902 6.31627 29.0443 6.2439 28.6928 6.19937C27.4152 6.0268 26.2269 6.32741 25.0442 6.62245C24.6369 6.72822 24.2408 6.68368 23.8056 6.48884C23.2254 6.2272 22.6675 6.0435 22.1375 5.95443C20.2016 5.62599 17.228 6.34967 15.0577 6.87295C14.6505 6.97316 14.2767 7.06222 13.9364 7.14016C10.2207 7.98075 6.02533 10.2019 3.52593 12.6402C2.09213 14.043 1.06559 15.3345 0.195265 16.8264L0 17.3497L0.384952 17.5835C0.781061 17.8284 0.95401 17.6447 1.5956 16.96C2.66119 15.8188 5.5009 12.796 7.00723 11.9554C12.3519 8.9939 15.5264 8.55413 17.6241 8.25352L17.7691 8.23125C18.9463 8.06425 20.3132 7.90838 21.6242 8.12548C22.0817 8.20342 22.5336 8.34259 22.9297 8.53743C23.6996 8.9104 24.5253 8.99947 25.524 8.8102C26.2492 8.67103 26.9745 8.56526 27.75 8.45949C27.644 8.57639 27.538 8.68773 27.4264 8.7935C26.6732 9.51718 26.411 10.4357 26.6453 11.5379C26.7067 11.8274 26.7792 12.1169 26.8573 12.4064C26.9354 12.707 27.0136 13.002 27.0749 13.3082C27.432 15.0283 27.3762 16.8765 26.9076 18.9585C26.729 19.7545 26.4891 20.6007 26.1934 21.4635C25.7583 22.7328 25.245 24.4306 25.1223 26.2399C25.0665 27.0526 24.6425 27.7819 23.7889 28.5334C23.6159 28.6837 23.3537 28.7561 23.0636 28.7282C22.7177 28.6948 22.3941 28.5222 22.2044 28.2717C21.7525 27.6817 21.1779 27.3087 20.4415 27.1305C19.9171 27.0025 19.4986 26.752 19.1527 26.3623C19.1081 26.3122 19.0914 26.2788 19.0858 26.2788C19.0858 26.2733 19.0969 26.251 19.1137 26.2232C19.5042 25.5885 19.8892 24.9539 20.2797 24.3193C20.9548 23.2115 20.7762 22.3821 19.6995 21.625L19.4707 21.4635C18.9463 21.0961 18.3996 20.7176 17.9142 20.3112C17.2447 19.7545 17.0494 19.1311 17.3061 18.3461C17.4177 18.0121 17.4623 17.6614 17.4958 17.3664C17.5237 17.1381 17.4958 16.8821 17.4121 16.6483C17.2614 16.2085 16.9434 15.9079 16.5473 15.8244C16.1512 15.7409 15.7551 15.8856 15.4427 16.2196C15.2697 16.4089 15.0187 16.7039 14.9071 17.0602C14.4608 18.4296 14.0256 19.8102 13.6184 21.1574C13.2725 22.2986 13.2613 23.501 13.5681 25.0597L13.7634 26.0228C14.0535 27.4367 14.3548 28.9008 14.4831 30.337C14.5668 31.2221 14.6505 31.9236 14.723 32.5415C14.935 34.3284 15.0689 35.4084 14.8123 38.4813C14.7732 38.9489 14.3994 40.7692 14.126 42.0941C13.769 43.8309 13.7616 44.7532 14.1037 44.8608L14.6003 44.9888L14.7955 44.5212C15.4985 42.8456 16.2238 41.1088 16.5418 39.2328C16.9769 36.6331 17.0494 33.8107 16.7593 30.5987C16.6422 29.2793 16.3967 27.9656 16.1624 26.6963C16.062 26.1508 15.9615 25.5997 15.8667 25.0541C15.8332 24.8482 15.7886 24.6422 15.744 24.4418C15.6714 24.0911 15.5989 23.7626 15.5822 23.4398C15.5375 22.7495 15.6603 22.087 15.8611 21.3967C16.4804 22.165 17.2893 22.7105 18.0816 23.2393C18.1374 23.2783 18.1931 23.3173 18.2489 23.3507L18.0983 23.5956C17.7803 24.1078 17.4623 24.6088 17.1666 25.1154C16.631 26.0339 16.7259 26.9635 17.4456 27.7986C18.076 28.5334 18.8905 29.0233 19.945 29.3072C20.1514 29.3628 20.2908 29.4575 20.4359 29.6356C21.005 30.3537 21.8697 30.8269 22.8181 30.9327C23.694 31.0329 24.5197 30.8102 25.1502 30.3036C26.517 29.2125 27.2646 27.8988 27.3762 26.3957C27.4822 25.004 27.8504 23.668 28.1963 22.5435C28.5868 21.2743 29.0332 19.7712 29.3288 18.1903C29.764 15.9079 29.6078 13.5475 28.8658 11.1761C28.7542 10.8142 28.8212 10.5582 29.1113 10.2631C29.5576 9.81222 30.0095 9.27781 30.4949 8.63206C30.8017 8.22569 30.891 7.74694 30.7459 7.31273C30.5953 6.87295 30.2271 6.53894 29.7305 6.39421L29.7194 6.41091Z" fill="white"/>
<path d="M24.3133 21.2854C24.3133 21.2854 24.3468 21.2798 24.3635 21.2743C24.6369 21.2075 24.821 20.9792 24.9103 20.8456C25.0163 20.6842 25.1279 20.4337 25.0609 20.172C24.927 19.6488 24.9661 19.1422 25.1892 18.5911C25.312 18.2793 25.2618 18.0288 25.1892 17.8729C25.0832 17.6224 24.8601 17.4276 24.5532 17.3051C24.1571 17.1493 23.6327 17.2161 23.337 17.8674C22.9465 18.7247 22.8572 19.5096 23.0525 20.2611C23.0525 20.2834 23.0581 20.3056 23.0636 20.3279C23.0859 20.4838 23.1194 20.751 23.3426 20.9347C23.5769 21.1295 23.934 21.3411 24.3078 21.2854H24.3133Z" fill="white"/>
<path d="M24.1626 3.42709C16.1512 2.51414 7.64319 4.55159 1.68481 10.1741C3.15767 8.59309 4.75885 7.08448 6.6055 5.89319C11.8107 2.45847 18.0983 0.910899 24.33 0.999968C25.0497 1.0111 25.5909 1.64572 25.496 2.35827C25.496 2.3694 25.496 2.3861 25.496 2.39724C25.4068 3.04298 24.821 3.49946 24.1682 3.42709H24.1626Z" fill="white"/>
</g>
<defs>
<clipPath id="clip0_2007_208">
<rect width="226" height="44" fill="white"/>
</clipPath>
</defs>
</svg>
